# xmcd
#
# Track frame offsets: 
#        150
#        14870
#        34597
#        48541
#        65560
#        80345
#        94476
#        111083
#        131656
#        149571
#        166640
#        183283
#        197864
#        217143
#
# Disc length: 3088 seconds
#
# Revision: 0
# Processed by: cddbd v1.5.2PL0 Copyright (c) Steve Scherf et al.
# Submitted via: ExactAudioCopy v1.0b3
#
DISCID=d30c0e0e
DTITLE=Jackson Taylor And The Sinners - Aces 'n Eights
DYEAR=2009
DGENRE=Country
TTITLE0=Back On The Bottle (Featuring Dale Watson and Jonny "2 Bags")
TTITLE1=Ball And Chain (Feat Jason Boland)
TTITLE2=Country Song
TTITLE3=Sunset
TTITLE4=Barefoot On The Dash
TTITLE5=Aces 'n Eights
TTITLE6=Goin' Back To California
TTITLE7=Easy Lovin' Stranger
TTITLE8=Corcle Of Trust
TTITLE9=Highway 101
TTITLE10=Love Don't Come Around Here
TTITLE11=Sex Love And Texas
TTITLE12=Cocaine
TTITLE13=Back On The Bottle (Featuring The Taylors)
EXTD=
EXTT0=
EXTT1=
EXTT2=
EXTT3=
EXTT4=
EXTT5=
EXTT6=
EXTT7=
EXTT8=
EXTT9=
EXTT10=
EXTT11=
EXTT12=
EXTT13=
PLAYORDER=
